<svg id="visual" viewBox="0 0 1920 1080" width="1920" height="1080" xmlns="http://www.w3.org/2000/svg" xmlns:xlink="http://www.w3.org/1999/xlink" version="1.1"><rect x="0" y="0" width="1920" height="1080" fill="#ee4557"></rect><defs><linearGradient id="grad1_0" x1="43.8%" y1="0%" x2="100%" y2="100%"><stop offset="14.444444444444446%" stop-color="#ee4557" stop-opacity="1"></stop><stop offset="85.55555555555554%" stop-color="#ee4557" stop-opacity="1"></stop></linearGradient></defs><defs><linearGradient id="grad2_0" x1="0%" y1="0%" x2="56.3%" y2="100%"><stop offset="14.444444444444446%" stop-color="#ee4557" stop-opacity="1"></stop><stop offset="85.55555555555554%" stop-color="#ee4557" stop-opacity="1"></stop></linearGradient></defs><g transform="translate(1920, 0)"><path d="M0 972C-114.8 910 -229.6 848 -326 787.1C-422.5 726.3 -500.7 666.5 -603.2 603.2C-705.7 539.9 -832.5 473.1 -898 372C-963.5 270.9 -967.8 135.4 -972 0L0 0Z" fill="#FBAE3C"></path></g><g transform="translate(0, 1080)"><path d="M0 -972C130.5 -943.7 261.1 -915.5 349.8 -844.4C438.5 -773.4 485.4 -659.6 581.9 -581.9C678.5 -504.3 824.7 -462.9 898 -372C971.3 -281 971.6 -140.5 972 0L0 0Z" fill="#FBAE3C"></path></g></svg>