<svg id="visual" viewBox="0 0 1920 1080" width="1920" height="1080" xmlns="http://www.w3.org/2000/svg" xmlns:xlink="http://www.w3.org/1999/xlink" version="1.1"><rect x="0" y="0" width="1920" height="1080" fill="#f9a122"></rect><path d="M961 1080L1000.7 1054.3C1040.3 1028.7 1119.7 977.3 1089.5 925.8C1059.3 874.3 919.7 822.7 925.8 771.2C932 719.7 1084 668.3 1119 617C1154 565.7 1072 514.3 1050.8 463C1029.7 411.7 1069.3 360.3 1076.5 308.8C1083.7 257.3 1058.3 205.7 1070 154.2C1081.7 102.7 1130.3 51.3 1154.7 25.7L1179 0L1920 0L1920 25.7C1920 51.3 1920 102.7 1920 154.2C1920 205.7 1920 257.3 1920 308.8C1920 360.3 1920 411.7 1920 463C1920 514.3 1920 565.7 1920 617C1920 668.3 1920 719.7 1920 771.2C1920 822.7 1920 874.3 1920 925.8C1920 977.3 1920 1028.7 1920 1054.3L1920 1080Z" fill="#ee4557" stroke-linecap="round" stroke-linejoin="miter"></path></svg>